<mxfile host="app.diagrams.net" modified="2022-02-09T18:30:57.329Z" agent="5.0 (Windows NT 10.0; Win64; x64) AppleWebKit/537.36 (KHTML, like Gecko) Chrome/96.0.4664.110 Safari/537.36" etag="PzdtAxSu2dYnfhcbMoCl" version="16.5.5" type="github">
  <diagram id="n3SEEiXXSzz2wW0eKJJ3" name="Page-1">
    <mxGraphModel dx="868" dy="460" grid="1" gridSize="10" guides="1" tooltips="1" connect="1" arrows="1" fold="1" page="1" pageScale="1" pageWidth="827" pageHeight="1169" math="0" shadow="0">
      <root>
        <mxCell id="0" />
        <mxCell id="1" parent="0" />
        <mxCell id="kUwnuog2VPORZJFaSoWV-1" value="" style="swimlane;startSize=0;" vertex="1" parent="1">
          <mxGeometry x="160" y="70" width="540" height="790" as="geometry" />
        </mxCell>
        <mxCell id="kUwnuog2VPORZJFaSoWV-2" value="verifier disponible&amp;nbsp;" style="rounded=0;whiteSpace=wrap;html=1;" vertex="1" parent="kUwnuog2VPORZJFaSoWV-1">
          <mxGeometry x="120" y="10" width="120" height="60" as="geometry" />
        </mxCell>
        <mxCell id="kUwnuog2VPORZJFaSoWV-4" value="organiser ev" style="rounded=0;whiteSpace=wrap;html=1;" vertex="1" parent="kUwnuog2VPORZJFaSoWV-1">
          <mxGeometry x="120" y="90" width="120" height="60" as="geometry" />
        </mxCell>
      </root>
    </mxGraphModel>
  </diagram>
</mxfile>
